<svg width="4081" height="2654" viewBox="0 0 4081 2654" fill="none" xmlns="http://www.w3.org/2000/svg">
<ellipse cx="1046" cy="1934.5" rx="240" ry="239.5" fill="url(#paint0_linear_2657_148)"/>
<ellipse cx="1457" cy="2088.5" rx="122" ry="122.5" fill="url(#paint1_linear_2657_148)"/>
<circle cx="1563" cy="1621" r="183" fill="url(#paint2_linear_2657_148)"/>
<ellipse cx="1151.5" cy="2471" rx="183.5" ry="183" fill="url(#paint3_linear_2657_148)"/>
<ellipse cx="240" cy="1910.5" rx="240" ry="239.5" fill="url(#paint4_linear_2657_148)"/>
<circle cx="703" cy="1524" r="183" fill="url(#paint5_linear_2657_148)"/>
<ellipse cx="345.5" cy="2447" rx="183.5" ry="183" fill="url(#paint6_linear_2657_148)"/>
<ellipse cx="3002" cy="1934.5" rx="240" ry="239.5" fill="url(#paint7_linear_2657_148)"/>
<ellipse cx="3413" cy="2088.5" rx="122" ry="122.5" fill="url(#paint8_linear_2657_148)"/>
<circle cx="3519" cy="1621" r="183" fill="url(#paint9_linear_2657_148)"/>
<ellipse cx="3107.5" cy="2471" rx="183.5" ry="183" fill="url(#paint10_linear_2657_148)"/>
<ellipse cx="2196" cy="1910.5" rx="240" ry="239.5" fill="url(#paint11_linear_2657_148)"/>
<circle cx="2659" cy="1524" r="183" fill="url(#paint12_linear_2657_148)"/>
<ellipse cx="2301.5" cy="2447" rx="183.5" ry="183" fill="url(#paint13_linear_2657_148)"/>
<ellipse cx="240" cy="239.5" rx="240" ry="239.5" transform="matrix(1 0 0 -1 1185 959)" fill="url(#paint14_linear_2657_148)"/>
<ellipse cx="122" cy="122.5" rx="122" ry="122.5" transform="matrix(1 0 0 -1 1714 688)" fill="url(#paint15_linear_2657_148)"/>
<circle cx="183" cy="183" r="183" transform="matrix(1 0 0 -1 1759 1216)" fill="url(#paint16_linear_2657_148)"/>
<ellipse cx="183.5" cy="183" rx="183.5" ry="183" transform="matrix(1 0 0 -1 1347 366)" fill="url(#paint17_linear_2657_148)"/>
<ellipse cx="240" cy="239.5" rx="240" ry="239.5" transform="matrix(1 0 0 -1 379 983)" fill="url(#paint18_linear_2657_148)"/>
<circle cx="183" cy="183" r="183" transform="matrix(1 0 0 -1 899 1313)" fill="url(#paint19_linear_2657_148)"/>
<ellipse cx="183.5" cy="183" rx="183.5" ry="183" transform="matrix(1 0 0 -1 541 390)" fill="url(#paint20_linear_2657_148)"/>
<ellipse cx="240" cy="239.5" rx="240" ry="239.5" transform="matrix(1 0 0 -1 3141 959)" fill="url(#paint21_linear_2657_148)"/>
<ellipse cx="122" cy="122.5" rx="122" ry="122.5" transform="matrix(1 0 0 -1 3670 688)" fill="url(#paint22_linear_2657_148)"/>
<circle cx="183" cy="183" r="183" transform="matrix(1 0 0 -1 3715 1216)" fill="url(#paint23_linear_2657_148)"/>
<ellipse cx="183.5" cy="183" rx="183.5" ry="183" transform="matrix(1 0 0 -1 3303 366)" fill="url(#paint24_linear_2657_148)"/>
<ellipse cx="240" cy="239.5" rx="240" ry="239.5" transform="matrix(1 0 0 -1 2335 983)" fill="url(#paint25_linear_2657_148)"/>
<circle cx="183" cy="183" r="183" transform="matrix(1 0 0 -1 2855 1313)" fill="url(#paint26_linear_2657_148)"/>
<ellipse cx="183.5" cy="183" rx="183.5" ry="183" transform="matrix(1 0 0 -1 2497 390)" fill="url(#paint27_linear_2657_148)"/>
<defs>
<linearGradient id="paint0_linear_2657_148" x1="1046" y1="1695" x2="1046" y2="2174" gradientUnits="userSpaceOnUse">
<stop stop-color="#FF962C"/>
<stop offset="1" stop-color="#E2D17B"/>
</linearGradient>
<linearGradient id="paint1_linear_2657_148" x1="1457" y1="1966" x2="1457" y2="2211" gradientUnits="userSpaceOnUse">
<stop stop-color="#FF2CC0"/>
<stop offset="1" stop-color="#7BB7E2"/>
</linearGradient>
<linearGradient id="paint2_linear_2657_148" x1="1563" y1="1438" x2="1563" y2="1804" gradientUnits="userSpaceOnUse">
<stop stop-color="#FF962C"/>
<stop offset="1" stop-color="#E2D17B"/>
</linearGradient>
<linearGradient id="paint3_linear_2657_148" x1="1151.5" y1="2288" x2="1151.5" y2="2654" gradientUnits="userSpaceOnUse">
<stop stop-color="#FF962C"/>
<stop offset="1" stop-color="#E2D17B"/>
</linearGradient>
<linearGradient id="paint4_linear_2657_148" x1="240" y1="1671" x2="240" y2="2150" gradientUnits="userSpaceOnUse">
<stop stop-color="#FF962C"/>
<stop offset="1" stop-color="#E2D17B"/>
</linearGradient>
<linearGradient id="paint5_linear_2657_148" x1="703" y1="1341" x2="703" y2="1707" gradientUnits="userSpaceOnUse">
<stop stop-color="#FF2CC0"/>
<stop offset="1" stop-color="#7BB7E2"/>
</linearGradient>
<linearGradient id="paint6_linear_2657_148" x1="345.5" y1="2264" x2="345.5" y2="2630" gradientUnits="userSpaceOnUse">
<stop stop-color="#FF2CC0"/>
<stop offset="1" stop-color="#7BB7E2"/>
</linearGradient>
<linearGradient id="paint7_linear_2657_148" x1="3002" y1="1695" x2="3002" y2="2174" gradientUnits="userSpaceOnUse">
<stop stop-color="#FF962C"/>
<stop offset="1" stop-color="#E2D17B"/>
</linearGradient>
<linearGradient id="paint8_linear_2657_148" x1="3413" y1="1966" x2="3413" y2="2211" gradientUnits="userSpaceOnUse">
<stop stop-color="#FF2CC0"/>
<stop offset="1" stop-color="#7BB7E2"/>
</linearGradient>
<linearGradient id="paint9_linear_2657_148" x1="3519" y1="1438" x2="3519" y2="1804" gradientUnits="userSpaceOnUse">
<stop stop-color="#FF962C"/>
<stop offset="1" stop-color="#E2D17B"/>
</linearGradient>
<linearGradient id="paint10_linear_2657_148" x1="3107.5" y1="2288" x2="3107.5" y2="2654" gradientUnits="userSpaceOnUse">
<stop stop-color="#FF962C"/>
<stop offset="1" stop-color="#E2D17B"/>
</linearGradient>
<linearGradient id="paint11_linear_2657_148" x1="2196" y1="1671" x2="2196" y2="2150" gradientUnits="userSpaceOnUse">
<stop stop-color="#FF962C"/>
<stop offset="1" stop-color="#E2D17B"/>
</linearGradient>
<linearGradient id="paint12_linear_2657_148" x1="2659" y1="1341" x2="2659" y2="1707" gradientUnits="userSpaceOnUse">
<stop stop-color="#FF2CC0"/>
<stop offset="1" stop-color="#7BB7E2"/>
</linearGradient>
<linearGradient id="paint13_linear_2657_148" x1="2301.5" y1="2264" x2="2301.5" y2="2630" gradientUnits="userSpaceOnUse">
<stop stop-color="#FF2CC0"/>
<stop offset="1" stop-color="#7BB7E2"/>
</linearGradient>
<linearGradient id="paint14_linear_2657_148" x1="240" y1="0" x2="240" y2="479" gradientUnits="userSpaceOnUse">
<stop stop-color="#FF962C"/>
<stop offset="1" stop-color="#E2D17B"/>
</linearGradient>
<linearGradient id="paint15_linear_2657_148" x1="122" y1="0" x2="122" y2="245" gradientUnits="userSpaceOnUse">
<stop stop-color="#FF2CC0"/>
<stop offset="1" stop-color="#7BB7E2"/>
</linearGradient>
<linearGradient id="paint16_linear_2657_148" x1="183" y1="0" x2="183" y2="366" gradientUnits="userSpaceOnUse">
<stop stop-color="#FF962C"/>
<stop offset="1" stop-color="#E2D17B"/>
</linearGradient>
<linearGradient id="paint17_linear_2657_148" x1="183.5" y1="0" x2="183.5" y2="366" gradientUnits="userSpaceOnUse">
<stop stop-color="#FF962C"/>
<stop offset="1" stop-color="#E2D17B"/>
</linearGradient>
<linearGradient id="paint18_linear_2657_148" x1="240" y1="0" x2="240" y2="479" gradientUnits="userSpaceOnUse">
<stop stop-color="#FF962C"/>
<stop offset="1" stop-color="#E2D17B"/>
</linearGradient>
<linearGradient id="paint19_linear_2657_148" x1="183" y1="0" x2="183" y2="366" gradientUnits="userSpaceOnUse">
<stop stop-color="#FF2CC0"/>
<stop offset="1" stop-color="#7BB7E2"/>
</linearGradient>
<linearGradient id="paint20_linear_2657_148" x1="183.5" y1="0" x2="183.5" y2="366" gradientUnits="userSpaceOnUse">
<stop stop-color="#FF2CC0"/>
<stop offset="1" stop-color="#7BB7E2"/>
</linearGradient>
<linearGradient id="paint21_linear_2657_148" x1="240" y1="0" x2="240" y2="479" gradientUnits="userSpaceOnUse">
<stop stop-color="#FF962C"/>
<stop offset="1" stop-color="#E2D17B"/>
</linearGradient>
<linearGradient id="paint22_linear_2657_148" x1="122" y1="0" x2="122" y2="245" gradientUnits="userSpaceOnUse">
<stop stop-color="#FF2CC0"/>
<stop offset="1" stop-color="#7BB7E2"/>
</linearGradient>
<linearGradient id="paint23_linear_2657_148" x1="183" y1="0" x2="183" y2="366" gradientUnits="userSpaceOnUse">
<stop stop-color="#FF962C"/>
<stop offset="1" stop-color="#E2D17B"/>
</linearGradient>
<linearGradient id="paint24_linear_2657_148" x1="183.5" y1="0" x2="183.5" y2="366" gradientUnits="userSpaceOnUse">
<stop stop-color="#FF962C"/>
<stop offset="1" stop-color="#E2D17B"/>
</linearGradient>
<linearGradient id="paint25_linear_2657_148" x1="240" y1="0" x2="240" y2="479" gradientUnits="userSpaceOnUse">
<stop stop-color="#FF962C"/>
<stop offset="1" stop-color="#E2D17B"/>
</linearGradient>
<linearGradient id="paint26_linear_2657_148" x1="183" y1="0" x2="183" y2="366" gradientUnits="userSpaceOnUse">
<stop stop-color="#FF2CC0"/>
<stop offset="1" stop-color="#7BB7E2"/>
</linearGradient>
<linearGradient id="paint27_linear_2657_148" x1="183.5" y1="0" x2="183.5" y2="366" gradientUnits="userSpaceOnUse">
<stop stop-color="#FF2CC0"/>
<stop offset="1" stop-color="#7BB7E2"/>
</linearGradient>
</defs>
</svg>
